<svg width="40" height="49" viewBox="0 0 40 49" fill="none" xmlns="http://www.w3.org/2000/svg">
<path d="M37.1887 9.28625C30.2403 9.28625 25.9207 8.92977 24.0675 8.67921C23.8341 8.64765 23.7854 8.34807 23.9919 8.23484L36.3291 1.47133C36.5569 1.34642 36.4682 1.00006 36.2084 1.00006H23.3784" stroke="#EEEEEE" stroke-width="1.39887" stroke-linecap="round"/>
<path d="M15.092 16.0658C8.1436 16.0658 3.82398 15.7093 1.97081 15.4588C1.73737 15.4272 1.68871 15.1276 1.89526 15.0144L14.2324 8.25087C14.4603 8.12596 14.3715 7.7796 14.1117 7.7796H1.28171" stroke="#EEEEEE" stroke-width="1.39887" stroke-linecap="round"/>
<path d="M38.6951 47.4529C31.7466 47.4529 27.427 47.0964 25.5738 46.8458C25.3404 46.8143 25.2917 46.5147 25.4983 46.4015L37.8354 39.638C38.0633 39.513 37.9746 39.1667 37.7147 39.1667H24.8847" stroke="#EEEEEE" stroke-width="1.39887" stroke-linecap="round"/>
</svg>
