<svg width="25" height="30" viewBox="0 0 25 30" fill="none" xmlns="http://www.w3.org/2000/svg">
<path d="M0.220262 21.604C0.220262 19.594 0.714262 17.878 1.70626 16.45C2.69626 15.03 4.04626 13.95 5.78626 13.22C7.37826 12.55 9.29826 12.07 11.6103 11.78C12.3903 11.688 13.6763 11.574 15.4503 11.432V10.692C15.4503 8.83198 15.2403 7.57598 14.8503 6.94198C14.2463 6.08198 13.2903 5.64198 11.9703 5.64198H11.6063C10.6463 5.73398 9.81426 6.03398 9.11426 6.56198C8.41426 7.10198 7.96426 7.82198 7.76426 8.75398C7.64426 9.35398 7.35226 9.68398 6.89426 9.77398L1.85426 9.14398C1.35826 9.02398 1.11026 8.78398 1.11026 8.36398C1.11026 8.27198 1.12426 8.18398 1.15426 8.06398C1.64826 5.48398 2.86426 3.56398 4.79426 2.30398C6.74626 1.07198 8.99426 0.35398 11.5743 0.203979H12.6543C15.9543 0.203979 18.5683 1.07198 20.4303 2.78398C20.7003 3.08398 20.9703 3.38398 21.2403 3.74398C21.4803 4.07398 21.6883 4.37198 21.8063 4.64398C21.9563 4.91198 22.1063 5.30398 22.1963 5.78398C22.3163 6.29198 22.4063 6.62398 22.4663 6.80398C22.5263 7.01198 22.5903 7.40398 22.6183 8.03398C22.6383 8.65998 22.6583 9.01998 22.6583 9.13998V19.7C22.6583 20.452 22.7783 21.14 22.9883 21.772C23.1983 22.398 23.4083 22.852 23.6183 23.12L24.6383 24.468C24.8183 24.74 24.9103 24.98 24.9103 25.188C24.9103 25.428 24.7903 25.64 24.5503 25.816C22.1503 27.916 20.8303 29.056 20.6243 29.236C20.2943 29.506 19.8743 29.536 19.3643 29.326C18.9942 29.0165 18.6429 28.6853 18.3123 28.334L17.6923 27.64C17.4731 27.366 17.2617 27.0858 17.0583 26.8L16.4583 25.93C14.8383 27.702 13.2523 28.81 11.6583 29.26C10.6703 29.56 9.47226 29.714 7.99826 29.714C5.77826 29.714 3.91826 29.028 2.47826 27.646C1.03826 26.266 0.318261 24.316 0.318261 21.766L0.218262 21.614L0.220262 21.604ZM7.72626 20.728C7.72626 21.86 8.00626 22.768 8.57626 23.456C9.14626 24.136 9.92626 24.48 10.8863 24.48C10.9763 24.48 11.0983 24.466 11.2763 24.44C11.4563 24.408 11.5443 24.394 11.6083 24.394C12.8363 24.074 13.7683 23.288 14.4563 22.038C14.7863 21.478 15.0263 20.878 15.1763 20.218C15.3563 19.578 15.4163 19.038 15.4463 18.618C15.4763 18.228 15.4763 17.538 15.4763 16.608V15.528C13.7963 15.528 12.5083 15.648 11.6363 15.888C9.08626 16.608 7.79626 18.228 7.79626 20.748L7.72626 20.708V20.728Z" fill="#222222"/>
</svg>
